PathFileType	4	(X/Y/Z)	./resultDataOpenSim/trcMotMarkerGrf/sub06/qtm-15-07.trc
DataRate	CameraRate	NumFrames	NumMarkers	Units	OrigDataRate	OrigDataStartFrame	OrigNumFrames
250.000000	250.000000	14	24	m	250.000000	67	530
Frame#	Time	L.Toe.Tip			R.Toe.Tip			L.Ankle.Lat			R.Ankle.Lat			L.Ankle.Med			R.Ankle.Med			L.Heel			R.Heel			L.Knee.Lat			R.Knee.Lat			L.Knee.Med			R.Knee.Med			L.Thigh.Upper			R.Thigh.Upper			L.ASIS			R.ASIS			V.Sacral			L.Acromium			R.Acromium			C7			L.Elbow			R.Elbow			L.Wrist.Lat			R.Wrist.Lat
		X1	Y1	Z1	X2	Y2	Z2	X3	Y3	Z3	X4	Y4	Z4	X5	Y5	Z5	X6	Y6	Z6	X7	Y7	Z7	X8	Y8	Z8	X9	Y9	Z9	X10	Y10	Z10	X11	Y11	Z11	X12	Y12	Z12	X13	Y13	Z13	X14	Y14	Z14	X15	Y15	Z15	X16	Y16	Z16	X17	Y17	Z17	X18	Y18	Z18	X19	Y19	Z19	X20	Y20	Z20	X21	Y21	Z21	X22	Y22	Z22	X23	Y23	Z23	X24	Y24	Z24

67	0.264	-1.2775096	0.083348634	-0.11850033	-0.74075745	0.036144735	0.061645579	-1.2788091	0.21566939	-0.14122581	-0.87438965	0.061878707	0.084960535	-1.2581966	0.21681854	-0.059961123	-0.85839434	0.079383583	-0.0028368274	-1.3257603	0.2700298	-0.090045435	-0.93186032	0.037585631	0.023942824	-0.9393976	0.38291893	-0.16529649	-0.81154602	0.44323509	0.1109805	-0.93699474	0.37104784	-0.043627547	-0.85333393	0.43086079	-0.010396648	-0.97702647	0.77428135	-0.16373509	-0.94026051	0.79808723	0.17696349	-0.89803945	0.8280001	-0.13029608	-0.86203998	0.84960376	0.1111278	-1.0623229	0.91334182	0.019001337	-0.92312591	1.3202626	-0.17699654	-0.91945471	1.296274	0.18740394	-1.0008733	1.3529187	0.0062185347	-0.94311887	0.9935691	-0.23960968	-1.0388755	1.0029484	0.24106737	-0.73961814	0.85504746	-0.21053134	-0.94847941	0.78109048	0.2758807
68	0.268	-1.2601585	0.08360626	-0.11809145	-0.74089072	0.036162151	0.061764545	-1.2639937	0.21568546	-0.14026523	-0.87465148	0.061914713	0.08508232	-1.2436176	0.21709126	-0.059029531	-0.85855244	0.079473657	-0.0027251352	-1.3117528	0.26933286	-0.089092854	-0.93190578	0.037664308	0.023965558	-0.92613376	0.38520709	-0.16495416	-0.81020633	0.44308536	0.11145959	-0.9241332	0.3733268	-0.042737447	-0.8518316	0.43113057	-0.009950393	-0.97012925	0.77653712	-0.16329705	-0.93713501	0.79889062	0.17657813	-0.89145988	0.8304419	-0.12974616	-0.8558441	0.85121357	0.11202304	-1.0553367	0.91504196	0.019495842	-0.9173668	1.3221105	-0.17690738	-0.91322288	1.2984905	0.18744129	-0.99468119	1.3547423	0.0062654936	-0.93920783	0.99555748	-0.23961146	-1.0297965	1.0040273	0.24200996	-0.73670218	0.85507314	-0.21108229	-0.93635404	0.78348368	0.27609406
69	0.272	-1.242547	0.083694193	-0.11767083	-0.74100195	0.036175993	0.061860115	-1.2490312	0.21549263	-0.13933599	-0.87486756	0.061948567	0.085180715	-1.2292034	0.21715622	-0.058031155	-0.85868485	0.079567274	-0.0026263147	-1.297698	0.2684092	-0.088380065	-0.93194469	0.037744624	0.023988445	-0.91292642	0.38763395	-0.16459838	-0.80899341	0.44293003	0.11187673	-0.91090704	0.37570217	-0.042022725	-0.85027483	0.4314005	-0.0095695006	-0.9632234	0.77883206	-0.16288436	-0.93264634	0.79989152	0.17656971	-0.88482623	0.83290536	-0.12915591	-0.84939855	0.85286664	0.11292824	-1.0485223	0.9167361	0.019975037	-0.9116021	1.3239886	-0.17681025	-0.90697826	1.3007438	0.18746054	-0.98850484	1.3565465	0.0063354054	-0.93530215	0.99759401	-0.2396679	-1.0207555	1.0051361	0.24264857	-0.73378927	0.85514263	-0.21166397	-0.92418796	0.7860022	0.27627019
70	0.276	-1.2247064	0.083636946	-0.11723699	-0.74108355	0.036182253	0.061930972	-1.2338777	0.21509308	-0.13847466	-0.87502354	0.061979508	0.085254412	-1.214739	0.21702569	-0.057008765	-0.85878678	0.07966426	-0.0025424938	-1.2835847	0.26720414	-0.087807121	-0.93197261	0.037817161	0.024009665	-0.89977827	0.39020077	-0.16423468	-0.80786081	0.44277852	0.11224404	-0.89737699	0.37822308	-0.041455948	-0.84861909	0.43168273	-0.009310145	-0.95630736	0.78114851	-0.16250994	-0.92617553	0.80116497	0.17717698	-0.87817502	0.83535138	-0.12858129	-0.84280692	0.85453636	0.1138504	-1.0418612	0.91843561	0.020489108	-0.90582465	1.3258885	-0.17671135	-0.90065307	1.3030255	0.18745375	-0.9823436	1.3583324	0.006432514	-0.93127268	0.99968973	-0.23942537	-1.0117581	1.0062923	0.24314339	-0.73090575	0.85524963	-0.21229166	-0.91198594	0.78863884	0.27640231
71	0.28	-1.2067221	0.083447811	-0.11671899	-0.74113309	0.03618022	0.061973841	-1.2185531	0.21448184	-0.13765833	-0.8751125	0.06201283	0.085305011	-1.1998598	0.21671169	-0.056050865	-0.85885311	0.079766643	-0.002475249	-1.2693597	0.26568416	-0.087244288	-0.93199042	0.037869109	0.024026562	-0.88669911	0.39290289	-0.16386301	-0.80673143	0.44265601	0.11260466	-0.88369179	0.38091464	-0.040961396	-0.84697898	0.43199745	-0.0091776606	-0.9493967	0.7834669	-0.16222571	-0.9184436	0.80253308	0.17822735	-0.87158997	0.83774007	-0.1281261	-0.83651627	0.85617052	0.11472846	-1.0352778	0.92013927	0.02109488	-0.9000335	1.3278077	-0.17661185	-0.89415396	1.3053284	0.18741826	-0.97619852	1.3601017	0.0065542983	-0.92712037	1.0018512	-0.23881555	-1.0028491	1.0075203	0.24365391	-0.72805091	0.85539416	-0.21296107	-0.89975201	0.79138696	0.27648432
72	0.284	-1.1886599	0.083110013	-0.1160131	-0.74115294	0.036172907	0.061986127	-1.2030954	0.21365474	-0.13685648	-0.87512797	0.062056739	0.085334797	-1.1844847	0.21621978	-0.05520684	-0.85888756	0.07987639	-0.0024272904	-1.2549835	0.26380758	-0.086616395	-0.93200364	0.037899453	0.024038154	-0.87369002	0.3957221	-0.16348286	-0.80543241	0.44258747	0.11296512	-0.86997514	0.38378252	-0.040488212	-0.84559933	0.43233548	-0.0091160031	-0.94250314	0.78577162	-0.16210512	-0.91070526	0.80379647	0.17933254	-0.86511367	0.84006535	-0.12783663	-0.8309654	0.85772494	0.11548016	-1.0287016	0.92182127	0.021792	-0.89423609	1.3297378	-0.1765036	-0.8874477	1.3076446	0.18735774	-0.97006716	1.3618518	0.006696966	-0.92292096	1.0040681	-0.23800898	-0.99403213	1.0088211	0.24423628	-0.72522366	0.85556983	-0.21366952	-0.88748609	0.79423354	0.27651176
73	0.288	-1.1704415	0.082607223	-0.11516527	-0.74114866	0.036162854	0.061968988	-1.1875334	0.21261516	-0.1360597	-0.87506907	0.062109682	0.08534241	-1.1688375	0.21555422	-0.054454626	-0.85890025	0.079993151	-0.00239889	-1.2405299	0.26158712	-0.085839143	-0.93201677	0.037929774	0.024047167	-0.86074652	0.39863634	-0.16309473	-0.80388121	0.44258706	0.11331235	-0.85633246	0.38681336	-0.040017667	-0.84454293	0.43266739	-0.0090542109	-0.93561788	0.78805534	-0.16217552	-0.90397539	0.80488354	0.18011711	-0.85870276	0.84235195	-0.1276503	-0.82597386	0.85921474	0.11611981	-1.0221239	0.9234585	0.02248087	-0.88843679	1.3316618	-0.17638255	-0.88064938	1.3099587	0.18727848	-0.96394279	1.3635764	0.0068598845	-0.91873277	1.0063212	-0.23716856	-0.98528423	1.0101773	0.2448855	-0.7224348	0.85577131	-0.21443147	-0.87518239	0.79715976	0.27648368
74	0.292	-1.1518717	0.08196116	-0.11438679	-0.74112862	0.036150276	0.061928594	-1.171874	0.2113726	-0.13527455	-0.87497136	0.062142987	0.085320115	-1.1531079	0.2147232	-0.05374241	-0.8588991	0.080115845	-0.0023844235	-1.2261116	0.25910115	-0.084860617	-0.93203164	0.037988847	0.024058181	-0.84787051	0.40162809	-0.16269221	-0.80227563	0.4426278	0.11361253	-0.84286843	0.38997314	-0.03956602	-0.84362394	0.43297648	-0.0089581096	-0.92871147	0.79032479	-0.16232731	-0.89870048	0.80581159	0.18038623	-0.85228058	0.84462168	-0.12746197	-0.82088129	0.86069778	0.11675273	-1.0156313	0.9250816	0.022897364	-0.88263002	1.3335607	-0.17625528	-0.87394238	1.3122476	0.18718506	-0.95782003	1.3652681	0.0070478488	-0.91457033	1.008595	-0.23633373	-0.97668012	1.0115906	0.24563797	-0.71969292	0.85599911	-0.21526307	-0.86283469	0.80015136	0.27640814
75	0.296	-1.1328417	0.081211031	-0.11381026	-0.74110123	0.036134476	0.061874106	-1.1561043	0.20993334	-0.13449645	-0.87490668	0.062116782	0.085263943	-1.1373348	0.21371901	-0.05301957	-0.85888685	0.080245697	-0.0023747257	-1.2117048	0.25638423	-0.08379442	-0.93205243	0.038086705	0.024073062	-0.83506594	0.40468133	-0.16226127	-0.80097695	0.44264135	0.1137886	-0.82965246	0.39322472	-0.039154181	-0.84275859	0.43323741	-0.0088474064	-0.92173432	0.79259102	-0.16230668	-0.8944254	0.80663045	0.18028353	-0.84582	0.8468687	-0.12721536	-0.81531982	0.86220335	0.1174439	-1.0093921	0.92679186	0.022609382	-0.87681096	1.3354141	-0.1761273	-0.86739362	1.3144917	0.18707679	-0.95169938	1.3669249	0.0072648757	-0.91042411	1.0108864	-0.2354354	-0.96844108	1.0130978	0.2466139	-0.71699027	0.85624701	-0.21616181	-0.85045817	0.80320277	0.27629736
76	0.3	-1.1134232	0.08038128	-0.1133761	-0.74107141	0.036115418	0.061813477	-1.1402131	0.2082953	-0.13370459	-0.87490358	0.062038259	0.085189366	-1.1215144	0.21251222	-0.052252523	-0.85886585	0.080385438	-0.0023618848	-1.1971849	0.25339693	-0.082809482	-0.932088	0.038212852	0.024095231	-0.82232689	0.40777988	-0.16179073	-0.80013803	0.44259124	0.11380233	-0.81665311	0.39656158	-0.038762702	-0.84206482	0.43340173	-0.0087549448	-0.91463783	0.79484857	-0.16190729	-0.88995951	0.80741936	0.18019844	-0.83937315	0.84906201	-0.12692168	-0.80941819	0.86370738	0.11817655	-1.0035141	0.92865948	0.021383293	-0.87098416	1.337209	-0.17599564	-0.86093672	1.3166852	0.18695196	-0.94558519	1.3685496	0.0075029838	-0.9062835	1.0131939	-0.23440202	-0.96071615	1.0147163	0.2478924	-0.71431242	0.85650147	-0.21710751	-0.83810887	0.80631568	0.27615826
77	0.304	-1.0937552	0.079490499	-0.11297649	-0.74104233	0.03609402	0.061751921	-1.1242045	0.20645809	-0.13289354	-0.87491177	0.061970814	0.085128692	-1.1056279	0.21108076	-0.051443941	-0.85884019	0.080537587	-0.0023409017	-1.1824742	0.25009878	-0.081956301	-0.93214701	0.038351716	0.024139163	-0.80964174	0.41091187	-0.16127872	-0.79952219	0.44251772	0.11374199	-0.80377227	0.40000527	-0.038339561	-0.84150445	0.4334759	-0.0086790073	-0.90741591	0.79707545	-0.16123425	-0.88448701	0.80825326	0.18038285	-0.83301749	0.85117389	-0.12661654	-0.80343893	0.86516041	0.11891429	-0.99782228	0.93058333	0.019734288	-0.86515654	1.3389531	-0.17585647	-0.85449842	1.3188334	0.18681669	-0.93948102	1.3701358	0.0077422725	-0.90215227	1.015495	-0.23329838	-0.95324623	1.0163631	0.24931397	-0.71165701	0.85675497	-0.21807722	-0.82584553	0.80949722	0.2759956
78	0.308	-1.0739105	0.078557728	-0.11257618	-0.74101985	0.03606832	0.061694171	-1.1080886	0.20443579	-0.1320822	-0.87488713	0.061967257	0.085111706	-1.0896206	0.20942492	-0.05062757	-0.85881046	0.080704134	-0.0023092495	-1.1675803	0.24649204	-0.0811525	-0.93222751	0.038496237	0.024223405	-0.79701047	0.41407369	-0.1607319	-0.79880612	0.44247583	0.11374454	-0.79094587	0.40357265	-0.037840207	-0.84080269	0.43356096	-0.008630391	-0.90009848	0.79925122	-0.16066537	-0.87825967	0.80913242	0.18076461	-0.82675064	0.85321416	-0.12630335	-0.79754597	0.8665145	0.11964693	-0.9919479	0.93236148	0.018627867	-0.85933523	1.3406647	-0.17571038	-0.84805313	1.3209381	0.18668163	-0.933388	1.3716663	0.0079640388	-0.8980455	1.0177532	-0.23229325	-0.94551223	1.0179013	0.25057487	-0.70902846	0.85700595	-0.21905535	-0.81366219	0.81275053	0.27581503
79	0.312	-1.0539068	0.077581993	-0.11219135	-0.74101385	0.036028376	0.061645881	-1.0918697	0.20225301	-0.13127956	-0.87483556	0.062034496	0.085149697	-1.0734293	0.20756407	-0.049839029	-0.85877164	0.080884755	-0.0022669052	-1.1525257	0.24260556	-0.080261947	-0.93229222	0.038661697	0.02432635	-0.78444873	0.41726865	-0.16015612	-0.7979061	0.44246714	0.11385806	-0.77815544	0.40726263	-0.037244781	-0.83992788	0.43374569	-0.0086659424	-0.89271249	0.80136645	-0.16047811	-0.87195271	0.80999617	0.18115409	-0.82043244	0.85523144	-0.12592855	-0.79171716	0.8677668	0.12039336	-0.98572369	0.93389986	0.018460232	-0.85353394	1.3423492	-0.17555748	-0.84159971	1.3229903	0.18655226	-0.92730425	1.3731255	0.0081619571	-0.89396992	1.0199495	-0.23147596	-0.93729035	1.0192773	0.25155428	-0.70642417	0.85724902	-0.22003616	-0.80150226	0.81606604	0.27561906
80	0.316	-1.0337785	0.076544029	-0.11184049	-0.74103055	0.035964415	0.06161222	-1.0755328	0.19993247	-0.13047253	-0.87476355	0.062151189	0.085230428	-1.0569685	0.20554183	-0.04910371	-0.85872225	0.081073604	-0.0022153935	-1.1372704	0.23846322	-0.079207119	-0.93225204	0.038887234	0.024346598	-0.7719846	0.42049802	-0.1595463	-0.79692435	0.44246008	0.11404291	-0.76543964	0.41104254	-0.036568454	-0.83917205	0.43403485	-0.0087825191	-0.88527485	0.80341597	-0.16064204	-0.86589032	0.81080292	0.18149276	-0.81385496	0.85726691	-0.12542088	-0.78573373	0.86900064	0.1211687	-0.9792971	0.93523675	0.018836104	-0.84775875	1.343997	-0.1753971	-0.83514579	1.3249757	0.18643039	-0.92122404	1.3745118	0.0083410958	-0.88991632	1.022086	-0.2308025	-0.92878417	1.020538	0.25236799	-0.70383724	0.85747851	-0.22102325	-0.78933175	0.81942599	0.27540825
